#!OML:ASF H:\Pregnant\Project 1\Capture day 1\Session 1\femalepreg.ASF
:FULLY-SPECIFIED
:DEGREES
701
root 20.4226 15.1711 0.356331 -343.367 -15.3531 1.44398
lowerback -9.90495 0.650051 -5.92718
upperback -4.1227 1.45989 -4.32035
thorax 1.21811 0.738254 -0.996822
lowerneck -17.9996 -5.81568 -2.11847
upperneck 24.3449 -9.10202 5.18406
head 11.2317 -3.70943 0.862468
rclavicle -1.5704e-014 6.67916e-014
rhumerus -37.0717 26.2673 -97.8047
rradius 74.8209
rwrist -23.0478
rhand -18.1724 -12.4295
rfingers 7.12502
rthumb 8.10391 -42.2542
lclavicle -1.5704e-014 6.67916e-014
lhumerus -44.8096 -5.03146 75.5963
lradius 16.8399
lwrist 29.7574
lhand -27.1786 -1.87939
lfingers 7.12502
lthumb -0.592551 28.0995
rfemur -22.3685 9.28563 17.4976
rtibia 63.4178
rfoot 3.05629 3.85383
rtoes -14.0397
lfemur -46.3091 -7.9743 -17.9522
ltibia 34.7208
lfoot -5.28911 -1.61508
ltoes -26.2763
702
root 20.4262 15.1808 0.504139 -343.478 -15.2546 1.64485
lowerback -9.76264 0.609959 -6.33841
upperback -4.07859 1.43629 -4.4942
thorax 1.1784 0.728857 -0.953459
lowerneck -18.0155 -5.69234 -2.11306
upperneck 24.3194 -8.93452 5.21969
head 11.2198 -3.62873 0.900381
rclavicle -2.71341e-014 7.79236e-014
rhumerus -38.0364 25.2378 -97.8655
rradius 73.2837
rwrist -23.451
rhand -19.1023 -12.8239
rfingers 7.12502
rthumb 7.20638 -42.6812
lclavicle -2.71341e-014 7.79236e-014
lhumerus -43.2718 -5.16322 75.4533
lradius 16.6763
lwrist 27.9442
lhand -26.9745 -1.70552
lfingers 7.12502
lthumb -0.395485 28.2739
rfemur -23.7585 8.59622 17.3545
rtibia 65.5037
rfoot 2.91287 2.54679
rtoes -14.6466
lfemur -45.6789 -7.91208 -18.5741
ltibia 34.773
lfoot -5.82157 -1.74783
ltoes -26.3003
703
root 20.4282 15.195 0.650277 -343.499 -15.131 1.7138
lowerback -9.68866 0.579445 -6.60032
upperback -4.05215 1.41598 -4.62966
thorax 1.16132 0.719881 -0.952118
lowerneck -18.0204 -5.54201 -2.04478
upperneck 24.3063 -8.72235 5.16356
head 11.2001 -3.53337 0.902167
rclavicle 3.40916e-014 -5.08889e-014
rhumerus -38.9116 24.1863 -97.912
rradius 71.4917
rwrist -23.7802
rhand -20.0204 -13.2844
rfingers 7.12502
rthumb 6.32017 -43.1701
lclavicle 3.40916e-014 -5.08889e-014
lhumerus -41.7641 -5.40591 75.4276
lradius 16.695
lwrist 26.4618
lhand -26.9426 -1.60594
lfingers 7.12502
lthumb -0.364691 28.3735
rfemur -25.2046 8.01046 17.3893
rtibia 67.4005
rfoot 2.66153 0.984424
rtoes -15.024
lfemur -45.1039 -7.79678 -19.0415
ltibia 34.8168
lfoot -6.35482 -1.89816
ltoes -26.2842
704
root 20.428 15.2128 0.794435 -343.465 -14.98 1.68987
lowerback -9.65594 0.552994 -6.7639
upperback -4.03785 1.3949 -4.73391
thorax 1.1565 0.709851 -0.972563
lowerneck -18.0386 -5.36796 -1.9001
upperneck 24.3243 -8.47422 5.01004
head 11.1846 -3.42564 0.861358
rclavicle -7.25564e-015 3.02153e-014
rhumerus -39.6816 23.0946 -97.9326
rradius 69.4425
rwrist -24.0233
rhand -20.8974 -13.8237
rfingers 7.12502
rthumb 5.4734 -43.733
lclavicle -7.25564e-015 3.02153e-014
lhumerus -40.2925 -5.77812 75.5171
lradius 16.896
lwrist 25.4008
lhand -27.0756 -1.63274
lfingers 7.12502
lthumb -0.493099 28.3464
rfemur -26.6832 7.52053 17.5665
rtibia 69.1134
rfoot 2.36011 -0.701847
rtoes -14.9229
lfemur -44.56 -7.65841 -19.3873
ltibia 34.8531
lfoot -6.88361 -2.04736
ltoes -26.2283
705
root 20.4249 15.233 0.9359 -343.386 -14.796 1.61241
lowerback -9.64677 0.521318 -6.88152
upperback -4.04171 1.36336 -4.81255
thorax 1.14676 0.694805 -0.992779
lowerneck -18.0509 -5.17383 -1.68888
upperneck 24.3686 -8.19685 4.77551
head 11.1703 -3.3081 0.784818
rclavicle 1.61016e-014 0
rhumerus -40.3482 21.9576 -97.9184
rradius 67.1473
rwrist -24.1743
rhand -21.6978 -14.4363
rfingers 7.12502
rthumb 4.70053 -44.3642
lclavicle 1.61016e-014 0
lhumerus -38.8617 -6.25961 75.6925
lradius 17.2652
lwrist 24.7682
lhand -27.3819 -1.76168
lfingers 7.12502
lthumb -0.788894 28.2166
rfemur -28.2026 7.10914 17.845
rtibia 70.6531
rfoot 2.03559 -2.37514
rtoes -14.3297
lfemur -44.0526 -7.53078 -19.6381
ltibia 34.8786
lfoot -7.39441 -2.18791
ltoes -26.1328
